# https://github.com/mikedh/trimesh
v -0.00511351 -0.02058408 -0.03869982
v 0.00230663 -0.02033623 -0.03892121
v 0.00230659 0.02045160 -0.03892147
v -0.00511352 0.02069972 -0.03869982
v -0.00499998 0.00455784 -0.04455790
v -0.02057632 0.01215790 -0.04280003
v -0.02057630 -0.01204222 -0.04280004
v 0.00488655 -0.02644218 -0.01491879
v 0.00546346 -0.02644074 -0.01474768
v -0.00771733 -0.02644218 -0.01367233
v -0.01234195 -0.02644070 -0.00968154
v -0.01312189 -0.02644022 -0.00947910
v -0.01655172 -0.02643930 -0.00942258
v -0.01716193 -0.02643042 -0.00923287
v -0.01963340 -0.02616811 -0.00791994
v -0.01922359 -0.02630483 -0.00901217
v -0.01820941 -0.02642089 -0.01040392
v -0.01785073 -0.02643460 -0.01755792
v -0.01960298 -0.02510803 -0.02936102
v -0.02192630 -0.02118270 -0.03529539
v 0.00488618 0.02655783 -0.01492015
v 0.00546336 0.02655640 -0.01474826
v -0.00771732 0.02655783 -0.01367233
v -0.01312207 0.02655588 -0.00947934
v -0.01234169 0.02655635 -0.00968160
v -0.01657637 0.02655441 -0.00939656
v -0.01830205 0.02653138 -0.01032822
v -0.01980431 0.02628440 -0.00814738
v -0.01786422 0.02650843 -0.00884356
v -0.01785079 0.02655024 -0.01755792
v -0.02192630 0.02129838 -0.03529534
v -0.01960298 0.02522368 -0.02936100
v -0.00962870 0.02537807 0.00968474
v -0.00744545 0.02526879 0.01192874
v -0.00431389 0.02538336 0.01294982
v -0.00088853 0.02547585 0.01325969
v 0.00239155 0.02552993 0.01284376
v 0.00550547 0.02555266 0.01173984
v 0.00835920 0.02552491 0.01006825
v 0.01091878 0.02543716 0.00784269
v 0.01326241 0.02522196 0.00513243
v 0.01593938 0.02451266 0.00281826
v -0.01077788 -0.02523215 0.00855671
v -0.00865189 -0.02514181 0.01112285
v -0.00603944 -0.02519007 0.01255526
v -0.00259464 -0.02531718 0.01320801
v 0.00075509 -0.02538942 0.01314752
v 0.00396685 -0.02543639 0.01234772
v 0.00695414 -0.02543572 0.01095089
v 0.00966834 -0.02537911 0.00900461
v 0.01211101 -0.02523688 0.00653951
v 0.01427092 -0.02492991 0.00384849
v -0.04374467 0.00005787 -0.00611345
v -0.04372326 -0.00185482 -0.00620011
v -0.04360779 -0.00528402 -0.00691829
v -0.04320587 -0.00918158 -0.00831388
v -0.04193062 -0.01406360 -0.01049437
v -0.03958493 -0.01880231 -0.01444240
v -0.03897195 -0.01970930 -0.01875900
v -0.03971815 -0.01774086 -0.02413627
v -0.04010563 -0.01445493 -0.02904465
v -0.04019446 -0.01033646 -0.03273701
v -0.03988333 -0.00511766 -0.03560984
v -0.03941464 0.00005781 -0.03688282
v -0.03988356 0.00523322 -0.03560958
v -0.04019452 0.01045213 -0.03273690
v -0.04010540 0.01457077 -0.02904483
v -0.03971817 0.01785647 -0.02413629
v -0.03897205 0.01982484 -0.01875894
v -0.03958479 0.01891806 -0.01444202
v -0.04193056 0.01417943 -0.01049446
v -0.04320595 0.00929709 -0.00831398
v -0.04360779 0.00539960 -0.00691829
v -0.04372319 0.00197055 -0.00619990
v -0.01981777 -0.02633254 -0.01660675
v -0.01982053 -0.02633234 -0.01851999
v -0.01982058 0.02644798 -0.01851998
v -0.01981783 0.02644817 -0.01660678
v 0.02366096 -0.02010343 -0.02525399
v 0.02519836 -0.02036785 -0.02017642
v 0.00697691 -0.02009702 -0.03855399
v 0.01217924 -0.02009721 -0.03673345
v 0.01684610 -0.02009706 -0.03380119
v 0.02074324 -0.02009718 -0.02990390
v 0.02519832 0.02048366 -0.02017592
v 0.02366113 0.02021886 -0.02525405
v 0.00697694 0.02021285 -0.03855383
v 0.01217927 0.02021271 -0.03673356
v 0.02074337 0.02021276 -0.02990386
v 0.01684592 0.02021288 -0.03380115
v -0.00468444 0.01446276 0.02946392
v 0.03007387 0.01133530 0.00432171
v 0.01317443 0.01477477 0.02710940
v 0.01824324 0.01474116 0.02395370
v -0.00977734 0.01427145 0.02805722
v -0.01382004 0.01417981 0.02604596
v -0.02327938 0.01461105 0.01942064
v 0.02814636 0.01391635 0.00927425
v 0.02590080 0.01435279 0.01478708
v 0.02255142 0.01460365 0.01978651
v -0.00026342 0.01470574 0.02980139
v 0.00247395 0.01476429 0.02975482
v 0.00754345 0.01471024 0.02913008
v -0.02646662 0.01516449 0.01623392
v -0.02925424 0.01527992 0.01276079
v 0.03007395 -0.01121942 0.00432165
v -0.02647079 -0.01504627 0.01623214
v -0.02328808 -0.01445228 0.01944752
v -0.01383669 -0.01407269 0.02603025
v 0.02813908 -0.01380729 0.00928818
v 0.02590454 -0.01423639 0.01478048
v 0.02256335 -0.01447529 0.01978425
v 0.03117780 -0.00394219 -0.01892126
v 0.03148448 -0.00436219 -0.01522487
v -0.00975483 -0.01417501 0.02805403
v 0.00247138 -0.01463740 0.02976210
v -0.00027332 -0.01460204 0.02979339
v -0.00468490 -0.01436291 0.02945402
v 0.01825871 -0.01460342 0.02395923
v 0.01317587 -0.01463691 0.02712434
v 0.00753673 -0.01457997 0.02914106
v -0.02925676 -0.01515983 0.01276246
v -0.04450000 0.00005783 -0.01505791
v 0.03117782 0.00405783 -0.01892113
v 0.03148447 0.00447781 -0.01522483
v 0.03001620 -0.01342756 -0.01683156
v 0.03088030 -0.00648852 -0.02061500
v 0.03088031 0.00660416 -0.02061495
v 0.03001648 0.01354248 -0.01683160
v -0.00174996 -0.02058431 -0.03870004
v -0.00174996 0.00005782 -0.04455790
v 0.00262138 0.00005781 -0.04452643
v -0.00174997 0.02069969 -0.03870029
v -0.00499998 -0.00094217 -0.04455790
v -0.00174998 0.00555783 -0.04455790
v -0.00499998 0.00555784 -0.04455790
v -0.01124998 -0.00094217 -0.04455791
v -0.01246840 0.01317298 -0.04301122
v -0.01124998 0.00455784 -0.04455790
v -0.01246841 -0.01305731 -0.04301123
v -0.01891775 0.00005783 -0.04450759
v 0.00319307 -0.02644218 -0.01973911
v 0.00514061 -0.02644218 -0.01494550
v -0.00141561 -0.02644218 -0.01429631
v -0.00375576 -0.02644218 -0.01241746
v -0.00343831 -0.02644079 -0.01222108
v -0.01271863 -0.02644072 -0.00960230
v -0.00580693 -0.02644218 -0.01233903
v -0.01210866 -0.02644218 -0.01171511
v -0.01444923 -0.02644217 -0.00983759
v -0.01482006 -0.02644029 -0.00948369
v -0.01671879 -0.02643934 -0.00945825
v -0.01731678 -0.02643043 -0.00933562
v -0.01909971 -0.02630458 -0.00882087
v -0.01817049 -0.02642107 -0.01022565
v -0.00789999 -0.02644218 -0.02105792
v -0.00620694 -0.02644218 -0.01623911
v -0.01250866 -0.02644218 -0.01561512
v -0.01690003 -0.02644218 -0.01365789
v -0.01705314 -0.02644218 -0.01368834
v -0.01718295 -0.02644218 -0.01377505
v -0.01726975 -0.02644218 -0.01390481
v -0.01785085 -0.02643459 -0.01405789
v -0.01227596 -0.02517128 -0.03048270
v -0.00789999 -0.02644218 -0.02355793
v -0.01785072 -0.02643460 -0.02005794
v -0.01343015 -0.02091761 -0.03717840
v -0.02160257 -0.01918354 -0.03749935
v -0.02140734 -0.02205544 -0.03436408
v 0.00513986 0.02655783 -0.01494800
v -0.00141559 0.02655783 -0.01429630
v -0.00412699 0.02655783 -0.01233894
v -0.00387324 0.02655783 -0.01236656
v -0.01042876 0.02655783 -0.01171510
v -0.00343856 0.02655646 -0.01222194
v -0.01271860 0.02655638 -0.00960263
v -0.01482013 0.02655594 -0.00948367
v -0.01522012 0.02655782 -0.01015787
v -0.01516654 0.02655782 -0.00995783
v -0.01823555 0.02653159 -0.01009282
v -0.01502013 0.02655782 -0.00981126
v -0.01679477 0.02655446 -0.00945752
v -0.01804265 0.02650813 -0.00901513
v -0.01250865 0.02655783 -0.01561512
v -0.01522011 0.02655783 -0.01365789
v -0.01785081 0.02655024 -0.01405789
v -0.01343013 0.02103329 -0.03717836
v -0.02160257 0.01929922 -0.03749931
v -0.01227596 0.02528692 -0.03048270
v -0.01785077 0.02655024 -0.02005795
v -0.02140735 0.02217112 -0.03436403
v -0.01524064 0.02575331 0.00087969
v -0.01314524 0.02616934 -0.00030005
v -0.01153958 0.02625682 -0.00017041
v -0.00865734 0.02538370 0.01046500
v -0.00972085 0.02629554 -0.00015434
v -0.01006725 0.02628957 -0.00009225
v -0.00577266 0.02539005 0.01226757
v -0.00682044 0.02630062 -0.00010075
v -0.00857966 0.02629863 -0.00003442
v -0.00244971 0.02551216 0.01284128
v 0.00362909 0.02630228 -0.00286266
v -0.00570654 0.02630152 -0.00020681
v -0.00528836 0.02630221 -0.00032463
v 0.00080507 0.02557047 0.01279591
v 0.00390398 0.02561174 0.01201511
v 0.00679622 0.02560086 0.01070939
v 0.00941499 0.02554903 0.00884127
v 0.01184041 0.02540224 0.00650934
v 0.01545875 0.02458729 0.00396915
v -0.01578723 -0.02555553 0.00074205
v -0.01183905 -0.02614782 -0.00051940
v -0.01289218 -0.02604593 0.00004069
v -0.00998589 -0.02523656 0.00937728
v -0.01068178 -0.02616533 -0.00014023
v -0.00746873 -0.02516941 0.01176889
v -0.00913033 -0.02618236 -0.00008313
v -0.00938791 -0.02617876 -0.00002683
v -0.00410943 -0.02534138 0.01264736
v -0.00625751 -0.02618552 -0.00012359
v -0.00800140 -0.02618418 -0.00007230
v -0.00081326 -0.02542475 0.01292731
v 0.00414576 -0.02618665 -0.00299634
v -0.00477143 -0.02618656 -0.00045716
v -0.00516036 -0.02618630 -0.00036186
v 0.00237642 -0.02548546 0.01245806
v 0.00536472 -0.02550328 0.01140075
v 0.00811843 -0.02547372 0.00981354
v 0.01062808 -0.02538112 0.00772163
v 0.01318102 -0.02509971 0.00521875
v -0.04380833 -0.00077888 -0.00639179
v -0.04381369 -0.00322194 -0.00692493
v -0.04367712 -0.00648288 -0.00796470
v -0.04449999 -0.00384224 -0.01335474
v -0.04324686 -0.01002867 -0.00951423
v -0.02525922 -0.02532193 -0.00977116
v -0.02429663 -0.02571604 -0.01120482
v -0.02077606 -0.02477129 -0.00152173
v -0.04450000 -0.00416879 -0.01418731
v -0.04195509 -0.01455327 -0.01182337
v -0.02326242 -0.02601886 -0.01321031
v -0.02255822 -0.02611371 -0.01406192
v -0.02373756 -0.02585257 -0.02253765
v -0.03965966 -0.01886758 -0.01613969
v -0.02593634 -0.02401443 -0.02819436
v -0.04449999 -0.00565987 -0.01798642
v -0.04003124 -0.01801129 -0.02168206
v -0.02703269 -0.01776707 -0.03666117
v -0.02674366 -0.02188896 -0.03185245
v -0.02691722 -0.02033677 -0.03398679
v -0.04450000 -0.00521251 -0.01876084
v -0.04057325 -0.01538748 -0.02647523
v -0.02728843 -0.01458045 -0.03922106
v -0.04066863 -0.01198441 -0.03053650
v -0.02652274 -0.00870763 -0.04230366
v -0.04071929 -0.00759357 -0.03344642
v -0.02473490 0.00376347 -0.04365208
v -0.02473489 -0.00364782 -0.04365209
v -0.04449999 -0.00228772 -0.02242856
v -0.04449998 -0.00163227 -0.02303709
v -0.04018847 -0.00267529 -0.03569057
v -0.02652277 0.00882329 -0.04230365
v -0.04449999 -0.00140342 -0.02229519
v -0.04018867 0.00279083 -0.03569034
v -0.02728845 0.01469615 -0.03922102
v -0.04449999 -0.00059771 -0.02190715
v -0.04071950 0.00770915 -0.03344615
v -0.02703270 0.01788277 -0.03666111
v -0.02691723 0.02045244 -0.03398673
v -0.02674367 0.02200458 -0.03185247
v -0.04066847 0.01210034 -0.03053653
v -0.02593635 0.02413005 -0.02819441
v -0.04449999 0.00050495 -0.02052444
v -0.04449999 0.00454070 -0.02113293
v -0.04057306 0.01550325 -0.02647552
v -0.02264632 0.02622070 -0.01397617
v -0.02332683 0.02611960 -0.01307778
v -0.02373755 0.02596821 -0.02253763
v -0.04003133 0.01812683 -0.02168201
v -0.02488847 0.02562006 -0.01039960
v -0.02042970 0.02488876 -0.00111126
v -0.04449999 0.00577537 -0.01798636
v -0.03965981 0.01898303 -0.01613960
v -0.04195502 0.01466910 -0.01182350
v -0.04450000 0.00079670 -0.01265582
v -0.04449999 0.00489104 -0.01645477
v -0.04449999 0.00502333 -0.01469113
v -0.04324688 0.01014434 -0.00951430
v -0.04449999 0.00135955 -0.01185447
v -0.04449999 0.00091238 -0.01188821
v -0.04449999 0.00005783 -0.01215199
v -0.04367719 0.00659828 -0.00796479
v -0.04380830 0.00089465 -0.00639169
v -0.04381362 0.00333764 -0.00692470
v -0.01920887 -0.02636618 -0.01355417
v -0.01900104 -0.02637877 -0.01709539
v -0.02300719 -0.02609380 -0.01727839
v -0.01900105 -0.02637877 -0.01802046
v -0.01920423 -0.02636644 -0.02058050
v -0.02300255 -0.02609410 -0.01830469
v -0.01979950 -0.02633375 -0.01755793
v -0.01900117 0.02649441 -0.01802045
v -0.01920427 0.02648207 -0.02058050
v -0.02300254 0.02620974 -0.01830466
v -0.01920894 0.02648182 -0.01355421
v -0.01900119 0.02649440 -0.01709538
v -0.02300717 0.02620944 -0.01727841
v -0.01979956 0.02644939 -0.01755791
v 0.00600487 -0.02644218 -0.02172733
v 0.00769795 -0.02644218 -0.01690849
v 0.00806148 -0.02644218 -0.01587922
v 0.00838703 -0.02644076 -0.01568184
v 0.00711587 -0.02618592 -0.00391354
v 0.00823143 -0.02618285 -0.00432229
v 0.00937687 -0.02617261 -0.00492321
v 0.01088321 -0.02611844 -0.00561826
v 0.01575046 -0.02521035 -0.00590863
v 0.02420752 -0.02058430 -0.02257898
v 0.00419605 -0.02058412 -0.03848595
v 0.00366952 -0.02644218 -0.02406304
v 0.00817435 -0.02644218 -0.02123224
v 0.00945288 -0.02058411 -0.03728613
v 0.01431120 -0.02058412 -0.03494646
v 0.02188853 -0.02058426 -0.02736889
v 0.00757883 -0.02644218 -0.02218047
v 0.01852671 -0.02058412 -0.03158468
v 0.00806109 0.02655783 -0.01588038
v 0.00838687 0.02655642 -0.01568230
v 0.00175932 0.02655783 -0.01525653
v 0.00656014 0.02630217 -0.00379296
v 0.00766214 0.02630068 -0.00409451
v 0.00879738 0.02629489 -0.00460143
v 0.01001802 0.02627414 -0.00527311
v 0.01291760 0.02599752 -0.00580406
v 0.01733628 0.02477041 -0.00619784
v 0.02973086 0.00005783 -0.02453017
v 0.03045813 0.00005782 -0.02236414
v 0.02851626 0.00005784 -0.02760097
v 0.02420764 0.02069973 -0.02257926
v 0.00485181 0.00005781 -0.04430680
v 0.00419592 0.02069969 -0.03848603
v -0.00063738 0.02655782 -0.02443296
v -0.00678738 0.02655783 -0.02093258
v -0.00678738 0.02655782 -0.02343261
v 0.00817557 0.00005781 -0.04380576
v 0.01138769 0.00005783 -0.04281504
v 0.01451656 0.00005785 -0.04158695
v 0.00945312 0.02069976 -0.03728603
v 0.02684858 0.00005782 -0.03048530
v 0.02266873 0.00005780 -0.03572667
v 0.02495495 0.00005780 -0.03326261
v 0.01027754 0.02655782 -0.01881699
v 0.02188882 0.02069972 -0.02736877
v 0.00000880 0.02655783 -0.01802429
v -0.00478253 0.02655783 -0.01996708
v 0.01742754 0.00005783 -0.03990638
v 0.02020475 0.00005781 -0.03801281
v 0.00948554 0.02655783 -0.01960854
v 0.00573019 0.02655782 -0.02334198
v 0.01431094 0.02069976 -0.03494663
v 0.01852668 0.02069987 -0.03158458
v -0.00409197 0.02310685 0.01875500
v -0.00218036 0.02319116 0.01894152
v 0.02558366 0.01928691 -0.00539438
v 0.00809071 0.02349337 0.01678313
v 0.00982176 0.02348978 0.01576350
v 0.01148965 0.02345666 0.01473978
v 0.01565257 0.01511733 0.02541378
v -0.00805105 0.02281722 0.01787407
v -0.00616519 0.02296084 0.01842676
v -0.00727622 0.01462846 0.02866474
v -0.00967636 0.02265078 0.01735333
v -0.01221978 0.01437391 0.02678892
v -0.01413291 0.02291445 0.01377783
v -0.01859009 0.01421457 0.02287000
v 0.01853348 0.02273358 0.00683037
v 0.01918898 0.02260572 0.00525564
v 0.02320677 0.02123256 -0.00405677
v 0.02975765 0.01165875 0.00607395
v 0.01601400 0.02316453 0.01041976
v 0.01732165 0.02298247 0.00876360
v 0.02703271 0.01440799 0.01182419
v 0.01310189 0.02339487 0.01339390
v 0.01460218 0.02330029 0.01205064
v 0.02035981 0.01500990 0.02174989
v 0.02420658 0.01478489 0.01715751
v -0.00041718 0.02322830 0.01903301
v -0.00209677 0.01479833 0.02958461
v 0.00073699 0.02331229 0.01885422
v 0.00225480 0.02334408 0.01868884
v 0.00101389 0.01489040 0.02970233
v 0.00431655 0.02342510 0.01823357
v 0.00616572 0.02347431 0.01755534
v 0.01029125 0.01509267 0.02801368
v 0.00449008 0.01495721 0.02942831
v -0.01558053 0.02363009 0.01051147
v -0.01483515 0.02325402 0.01230448
v -0.02447284 0.01485782 0.01825917
v -0.01610665 0.02394504 0.00861016
v -0.03740163 0.00243408 0.00589148
v -0.02804105 0.02260191 -0.00132931
v -0.03319848 0.01793494 0.00158838
v -0.03621711 0.01232314 0.00359414
v -0.03725218 0.00791993 0.00479597
v -0.03747473 0.00436253 0.00556544
v -0.02779290 0.01562476 0.01421695
v 0.02558332 -0.01917160 -0.00539434
v 0.03146853 0.00005780 0.00401139
v -0.01583534 -0.02374554 0.00930854
v -0.01522481 -0.02339443 0.01125043
v -0.02647938 0.00005782 0.02070903
v -0.02869549 0.00005784 0.01876904
v -0.01457074 -0.02279674 0.01346473
v -0.02012714 0.00005780 0.02517555
v -0.02494499 0.00005781 0.02193464
v -0.02449129 -0.01469621 0.01828207
v -0.01041675 -0.02252492 0.01686913
v -0.00906446 -0.02258466 0.01758864
v -0.01356850 0.00005780 0.02931759
v -0.01528486 0.00005780 0.02837490
v -0.01857600 -0.01414196 0.02284881
v 0.01890454 -0.02254028 0.00613215
v 0.02322663 -0.02110217 -0.00405847
v 0.03124888 0.00005782 0.00624192
v 0.03074783 0.00005783 0.00956562
v 0.02975716 0.00005782 0.01277756
v 0.02975777 -0.01154286 0.00607385
v 0.01674312 -0.02295393 0.00957303
v 0.01789181 -0.02275606 0.00784415
v 0.02852905 0.00005781 0.01590652
v 0.02702010 -0.01431435 0.01181987
v 0.01391286 -0.02323238 0.01272315
v 0.01528799 -0.02312415 0.01127283
v 0.02684846 0.00005781 0.01881752
v 0.02495494 0.00005781 0.02159466
v 0.02420852 -0.01466562 0.01715873
v 0.03150001 0.00005783 -0.00583394
v 0.03149099 -0.00454278 -0.00583393
v 0.03136158 -0.00394220 -0.01704987
v -0.00701635 -0.02278717 0.01821058
v -0.00505909 -0.02293218 0.01857796
v -0.01093346 0.00005780 0.03061434
v -0.01222327 -0.01424561 0.02679568
v 0.00147274 -0.02318698 0.01886702
v 0.00262136 0.00005783 0.03285851
v 0.00485183 0.00005781 0.03263887
v -0.00120411 -0.02311734 0.01893911
v 0.00027081 -0.02315287 0.01895116
v -0.00240284 0.00005782 0.03269828
v -0.00045185 0.00005783 0.03286597
v 0.00101388 0.00005783 0.03288997
v 0.00101386 -0.01477474 0.02970233
v -0.00318694 -0.02302317 0.01890569
v -0.00531470 0.00005781 0.03231557
v -0.00815192 0.00005780 0.03155680
v -0.00726958 -0.01455009 0.02864244
v -0.00209528 -0.01470487 0.02957054
v 0.01071038 -0.02336022 0.01526158
v 0.01228875 -0.02331496 0.01410339
v 0.01742750 0.00005784 0.02823847
v 0.02020465 0.00005785 0.02634495
v 0.02266872 0.00005782 0.02405874
v 0.02037034 -0.01487162 0.02176028
v 0.00716716 -0.02337286 0.01718203
v 0.00891936 -0.02338019 0.01633391
v 0.01451654 0.00005785 0.02991903
v 0.01138759 0.00005783 0.03114714
v 0.01566656 -0.01496205 0.02543598
v 0.00332167 -0.02327432 0.01846763
v 0.00521508 -0.02333580 0.01794559
v 0.00817557 0.00005780 0.03213783
v 0.00449083 -0.01483160 0.02943473
v 0.01029719 -0.01494929 0.02803101
v -0.01645341 -0.02382691 0.00820214
v -0.03740162 -0.00231838 0.00589149
v -0.03747473 -0.00424684 0.00556545
v -0.03725217 -0.00780437 0.00479597
v -0.03621709 -0.01220755 0.00359413
v -0.03319863 -0.01781911 0.00158844
v -0.02804613 -0.02248339 -0.00132729
v -0.03063912 0.00005784 0.01655623
v -0.03218657 0.00005784 0.01458153
v -0.02779374 -0.01550764 0.01421758
v -0.04450000 -0.00124383 -0.01360499
v -0.04450000 -0.00286697 -0.01564035
v -0.04450000 -0.00228768 -0.01817840
v -0.04450000 0.00285046 -0.01740395
v -0.04450000 0.00209836 -0.01410875
v 0.03117781 0.00005782 -0.01892121
v 0.03136159 0.00005783 -0.01704979
v 0.03149099 0.00465837 -0.00583395
v 0.03148269 0.00005785 -0.01539017
v 0.03136159 0.00405786 -0.01704972
v 0.02964847 -0.01421073 -0.01770114
v 0.02971644 -0.01315041 -0.00582494
v 0.03117782 -0.00509223 -0.01892115
v 0.03140447 -0.00569332 -0.01621932
v 0.03084054 -0.00666897 -0.02079413
v 0.03077602 0.00015782 -0.02110644
v 0.03096819 -0.00509220 -0.02016910
v 0.03096559 -0.00656895 -0.02016849
v 0.03084055 0.00678462 -0.02079408
v 0.03096818 0.00120782 -0.02016916
v 0.03096821 0.00520784 -0.02016901
v 0.03086552 0.00005782 -0.02069469
v 0.02964878 0.01432568 -0.01770116
v 0.02971678 0.01326531 -0.00582504
v 0.03117783 0.00520786 -0.01892103
v 0.03140447 0.00580890 -0.01621926
v 0.03096560 0.00668460 -0.02016840
f 107 409 410
f 409 43 214
f 410 214 44
f 409 214 410
f 44 413 410
f 413 108 416
f 410 416 107
f 413 416 410
f 45 418 216
f 418 109 417
f 216 417 44
f 418 417 216
f 109 421 417
f 421 108 413
f 417 413 44
f 421 413 417
f 104 397 396
f 397 34 195
f 396 195 33
f 397 195 396
f 28 280 192
f 280 70 281
f 192 281 33
f 280 281 192
f 3 133 341
f 133 4 342
f 341 342 87
f 133 342 341
f 87 342 344
f 342 4 189
f 344 189 32
f 342 189 344
f 32 190 344
f 190 30 343
f 344 343 87
f 190 343 344
f 97 374 398
f 374 34 397
f 398 397 104
f 374 397 398
f 97 398 411
f 398 104 412
f 411 412 107
f 398 412 411
f 107 416 411
f 416 108 415
f 411 415 97
f 416 415 411
f 123 484 488
f 484 55 285
f 488 285 72
f 484 285 488
f 69 283 277
f 283 70 280
f 277 280 28
f 283 280 277
f 28 180 277
f 180 27 276
f 277 276 69
f 180 276 277
f 15 213 211
f 213 44 214
f 211 214 43
f 213 214 211
f 122 477 478
f 477 55 233
f 478 233 56
f 477 233 478
f 122 474 483
f 474 43 409
f 483 409 107
f 474 409 483
f 107 412 483
f 412 104 481
f 483 481 122
f 412 481 483
f 39 383 208
f 383 100 384
f 208 384 40
f 383 384 208
f 104 396 406
f 396 33 399
f 406 399 105
f 396 399 406
f 105 399 401
f 399 33 281
f 401 281 70
f 399 281 401
f 53 475 400
f 475 122 482
f 400 482 105
f 475 482 400
f 105 482 406
f 482 122 481
f 406 481 104
f 482 481 406
f 114 437 438
f 437 92 408
f 438 408 106
f 437 408 438
f 40 384 380
f 384 100 386
f 380 386 99
f 384 386 380
f 85 332 333
f 332 39 208
f 333 208 40
f 332 208 333
f 38 207 331
f 207 39 332
f 331 332 85
f 207 332 331
f 115 443 440
f 443 109 418
f 440 418 45
f 443 418 440
f 115 442 443
f 442 95 419
f 443 419 109
f 442 419 443
f 115 456 442
f 456 118 455
f 442 455 95
f 456 455 442
f 95 455 371
f 455 118 454
f 371 454 91
f 455 454 371
f 101 387 388
f 387 36 363
f 388 363 91
f 387 363 388
f 96 373 372
f 373 95 369
f 372 369 34
f 373 369 372
f 34 374 372
f 374 97 375
f 372 375 96
f 374 375 372
f 109 419 420
f 419 95 373
f 420 373 96
f 419 373 420
f 96 414 420
f 414 108 421
f 420 421 109
f 414 421 420
f 96 375 414
f 375 97 415
f 414 415 108
f 375 415 414
f 73 292 291
f 292 72 285
f 291 285 55
f 292 285 291
f 73 404 292
f 404 105 403
f 292 403 72
f 404 403 292
f 68 272 275
f 272 32 270
f 275 270 67
f 272 270 275
f 68 279 272
f 279 69 278
f 272 278 32
f 279 278 272
f 123 488 487
f 488 72 286
f 487 286 68
f 488 286 487
f 68 286 282
f 286 72 287
f 282 287 70
f 286 287 282
f 70 283 282
f 283 69 279
f 282 279 68
f 283 279 282
f 77 302 303
f 302 30 190
f 303 190 32
f 302 190 303
f 32 278 303
f 278 69 304
f 303 304 77
f 278 304 303
f 34 369 198
f 369 95 370
f 198 370 35
f 369 370 198
f 95 371 370
f 371 91 362
f 370 362 35
f 371 362 370
f 35 362 201
f 362 91 363
f 201 363 36
f 362 363 201
f 38 331 206
f 331 85 330
f 206 330 37
f 331 330 206
f 103 394 393
f 394 93 365
f 393 365 38
f 394 365 393
f 38 206 393
f 206 37 392
f 393 392 103
f 206 392 393
f 94 367 366
f 367 39 207
f 366 207 38
f 367 207 366
f 38 365 366
f 365 93 368
f 366 368 94
f 365 368 366
f 100 383 385
f 383 39 367
f 385 367 94
f 383 367 385
f 94 461 385
f 461 119 462
f 385 462 100
f 461 462 385
f 93 460 368
f 460 119 461
f 368 461 94
f 460 461 368
f 70 287 284
f 287 72 288
f 284 288 71
f 287 288 284
f 71 402 284
f 402 105 401
f 284 401 70
f 402 401 284
f 72 403 288
f 403 105 402
f 288 402 71
f 403 402 288
f 110 427 424
f 427 106 408
f 424 408 92
f 427 408 424
f 110 426 431
f 426 99 430
f 431 430 111
f 426 430 431
f 125 491 492
f 491 92 437
f 492 437 114
f 491 437 492
f 114 490 492
f 490 124 493
f 492 493 125
f 490 493 492
f 23 184 174
f 184 30 185
f 174 185 24
f 184 185 174
f 30 186 185
f 186 27 178
f 185 178 24
f 186 178 185
f 24 178 179
f 178 27 180
f 179 180 28
f 178 180 179
f 24 203 176
f 203 37 204
f 176 204 25
f 203 204 176
f 36 205 199
f 205 37 203
f 199 203 24
f 205 203 199
f 67 270 269
f 270 32 191
f 269 191 31
f 270 191 269
f 31 188 269
f 188 6 268
f 269 268 67
f 188 268 269
f 32 189 191
f 189 4 187
f 191 187 31
f 189 187 191
f 4 138 187
f 138 6 188
f 187 188 31
f 138 188 187
f 5 139 136
f 139 6 138
f 136 138 4
f 139 138 136
f 1 137 134
f 137 6 139
f 134 139 5
f 137 139 134
f 5 136 135
f 136 4 133
f 135 133 3
f 136 133 135
f 3 131 135
f 131 1 134
f 135 134 5
f 131 134 135
f 7 141 140
f 141 6 137
f 140 137 1
f 141 137 140
f 65 262 264
f 262 6 257
f 264 257 64
f 262 257 264
f 64 258 261
f 258 7 255
f 261 255 63
f 258 255 261
f 6 141 257
f 141 7 258
f 257 258 64
f 141 258 257
f 56 233 235
f 233 55 234
f 235 234 57
f 233 234 235
f 57 479 235
f 479 122 478
f 235 478 56
f 479 478 235
f 58 239 485
f 239 55 484
f 485 484 123
f 239 484 485
f 58 240 239
f 240 57 234
f 239 234 55
f 240 234 239
f 16 154 237
f 154 15 236
f 237 236 58
f 154 236 237
f 122 479 480
f 479 57 240
f 480 240 58
f 479 240 480
f 58 236 238
f 236 15 211
f 238 211 43
f 236 211 238
f 43 474 238
f 474 122 480
f 238 480 58
f 474 480 238
f 114 438 497
f 438 106 495
f 497 495 126
f 438 495 497
f 90 359 355
f 359 87 343
f 355 343 30
f 359 343 355
f 90 355 354
f 355 30 184
f 354 184 23
f 355 184 354
f 23 329 354
f 329 85 358
f 354 358 90
f 329 358 354
f 47 226 469
f 226 48 470
f 469 470 121
f 226 470 469
f 9 223 146
f 223 48 224
f 146 224 11
f 223 224 146
f 11 145 146
f 145 8 143
f 146 143 9
f 145 143 146
f 112 463 432
f 463 119 459
f 432 459 50
f 463 459 432
f 112 433 436
f 433 51 428
f 436 428 111
f 433 428 436
f 112 432 433
f 432 50 229
f 433 229 51
f 432 229 433
f 100 462 435
f 462 119 463
f 435 463 112
f 462 463 435
f 121 470 473
f 470 48 464
f 473 464 120
f 470 464 473
f 120 468 466
f 468 119 460
f 466 460 93
f 468 460 466
f 120 467 473
f 467 103 471
f 473 471 121
f 467 471 473
f 93 394 466
f 394 103 467
f 466 467 120
f 394 467 466
f 50 459 228
f 459 119 458
f 228 458 49
f 459 458 228
f 49 465 227
f 465 120 464
f 227 464 48
f 465 464 227
f 119 468 458
f 468 120 465
f 458 465 49
f 468 465 458
f 53 289 231
f 289 73 290
f 231 290 54
f 289 290 231
f 54 290 232
f 290 73 291
f 232 291 55
f 290 291 232
f 54 476 231
f 476 122 475
f 231 475 53
f 476 475 231
f 55 477 232
f 477 122 476
f 232 476 54
f 477 476 232
f 53 400 293
f 400 105 405
f 293 405 74
f 400 405 293
f 74 294 293
f 294 73 289
f 293 289 53
f 294 289 293
f 105 404 405
f 404 73 294
f 405 294 74
f 404 294 405
f 66 274 271
f 274 68 275
f 271 275 67
f 274 275 271
f 67 268 271
f 268 6 265
f 271 265 66
f 268 265 271
f 66 265 267
f 265 6 262
f 267 262 65
f 265 262 267
f 78 305 306
f 305 27 186
f 306 186 30
f 305 186 306
f 30 302 306
f 302 77 308
f 306 308 78
f 302 308 306
f 78 307 305
f 307 69 276
f 305 276 27
f 307 276 305
f 78 308 307
f 308 77 304
f 307 304 69
f 308 304 307
f 9 143 312
f 143 8 311
f 312 311 80
f 143 311 312
f 51 229 316
f 229 50 315
f 316 315 80
f 229 315 316
f 50 228 315
f 228 49 314
f 315 314 80
f 228 314 315
f 80 313 312
f 313 48 223
f 312 223 9
f 313 223 312
f 80 314 313
f 314 49 227
f 313 227 48
f 314 227 313
f 106 427 407
f 427 110 423
f 407 423 80
f 427 423 407
f 80 494 407
f 494 126 495
f 407 495 106
f 494 495 407
f 26 196 200
f 196 35 201
f 200 201 36
f 196 201 200
f 36 199 200
f 199 24 177
f 200 177 26
f 199 177 200
f 22 202 328
f 202 37 330
f 328 330 85
f 202 330 328
f 25 204 175
f 204 37 202
f 175 202 22
f 204 202 175
f 22 173 175
f 173 24 176
f 175 176 25
f 173 176 175
f 102 395 390
f 395 103 392
f 390 392 37
f 395 392 390
f 102 389 391
f 389 36 387
f 391 387 101
f 389 387 391
f 102 390 389
f 390 37 205
f 389 205 36
f 390 205 389
f 98 425 379
f 425 110 424
f 379 424 92
f 425 424 379
f 99 426 382
f 426 110 425
f 382 425 98
f 426 425 382
f 92 364 379
f 364 85 378
f 379 378 98
f 364 378 379
f 85 335 378
f 335 42 377
f 378 377 98
f 335 377 378
f 41 334 209
f 334 85 333
f 209 333 40
f 334 333 209
f 41 210 334
f 210 42 335
f 334 335 85
f 210 335 334
f 40 380 209
f 380 99 381
f 209 381 41
f 380 381 209
f 99 382 381
f 382 98 376
f 381 376 41
f 382 376 381
f 41 376 210
f 376 98 377
f 210 377 42
f 376 377 210
f 129 509 508
f 509 125 493
f 508 493 124
f 509 493 508
f 129 506 507
f 506 85 364
f 507 364 92
f 506 364 507
f 92 491 507
f 491 125 509
f 507 509 129
f 491 509 507
f 65 264 263
f 264 64 259
f 263 259 61
f 264 259 263
f 61 266 263
f 266 66 267
f 263 267 65
f 266 267 263
f 60 246 252
f 246 58 251
f 252 251 61
f 246 251 252
f 68 274 273
f 274 66 266
f 273 266 61
f 274 266 273
f 61 251 486
f 251 58 485
f 486 485 123
f 251 485 486
f 123 487 486
f 487 68 273
f 486 273 61
f 487 273 486
f 60 252 245
f 252 61 249
f 245 249 19
f 252 249 245
f 113 489 439
f 489 124 490
f 439 490 114
f 489 490 439
f 114 497 439
f 497 126 496
f 439 496 113
f 497 496 439
f 82 356 323
f 356 90 357
f 323 357 83
f 356 357 323
f 82 322 346
f 322 81 345
f 346 345 87
f 322 345 346
f 116 444 472
f 444 47 469
f 472 469 121
f 444 469 472
f 121 471 472
f 471 103 446
f 472 446 116
f 471 446 472
f 103 395 446
f 395 102 445
f 446 445 116
f 395 445 446
f 46 441 219
f 441 115 440
f 219 440 45
f 441 440 219
f 118 456 453
f 456 115 441
f 453 441 46
f 456 441 453
f 8 145 148
f 145 11 150
f 148 150 13
f 145 150 148
f 13 149 148
f 149 10 144
f 148 144 8
f 149 144 148
f 47 222 221
f 222 46 217
f 221 217 13
f 222 217 221
f 51 316 230
f 316 80 317
f 230 317 52
f 316 317 230
f 52 317 422
f 317 80 423
f 422 423 110
f 317 423 422
f 111 428 429
f 428 51 230
f 429 230 52
f 428 230 429
f 52 422 429
f 422 110 431
f 429 431 111
f 422 431 429
f 83 357 350
f 357 90 361
f 350 361 89
f 357 361 350
f 89 361 352
f 361 90 358
f 352 358 85
f 361 358 352
f 34 198 194
f 198 35 197
f 194 197 29
f 198 197 194
f 35 196 197
f 196 26 182
f 197 182 29
f 196 182 197
f 28 192 183
f 192 33 193
f 183 193 29
f 192 193 183
f 29 193 194
f 193 33 195
f 194 195 34
f 193 195 194
f 29 181 183
f 181 24 179
f 183 179 28
f 181 179 183
f 29 182 181
f 182 26 177
f 181 177 24
f 182 177 181
f 21 170 327
f 170 22 328
f 327 328 85
f 170 328 327
f 24 173 172
f 173 22 170
f 172 170 21
f 173 170 172
f 21 327 171
f 327 85 329
f 171 329 23
f 327 329 171
f 23 174 171
f 174 24 172
f 171 172 21
f 174 172 171
f 128 510 504
f 510 129 508
f 504 508 124
f 510 508 504
f 85 506 502
f 506 129 510
f 502 510 128
f 506 510 502
f 124 489 504
f 489 113 503
f 504 503 128
f 489 503 504
f 62 260 256
f 260 64 261
f 256 261 63
f 260 261 256
f 62 254 260
f 254 61 259
f 260 259 64
f 254 259 260
f 63 255 256
f 255 7 253
f 256 253 62
f 255 253 256
f 7 248 253
f 248 61 254
f 253 254 62
f 248 254 253
f 20 168 167
f 168 7 140
f 167 140 1
f 168 140 167
f 1 164 167
f 164 19 169
f 167 169 20
f 164 169 167
f 20 250 168
f 250 61 248
f 168 248 7
f 250 248 168
f 20 169 250
f 169 19 249
f 250 249 61
f 169 249 250
f 59 243 300
f 243 19 299
f 300 299 76
f 243 299 300
f 76 301 300
f 301 75 297
f 300 297 59
f 301 297 300
f 59 244 247
f 244 58 246
f 247 246 60
f 244 246 247
f 60 245 247
f 245 19 243
f 247 243 59
f 245 243 247
f 16 237 241
f 237 58 244
f 241 244 59
f 237 244 241
f 16 241 155
f 241 59 242
f 155 242 17
f 241 242 155
f 17 242 295
f 242 59 297
f 295 297 75
f 242 297 295
f 76 299 298
f 299 19 166
f 298 166 18
f 299 166 298
f 18 296 298
f 296 75 301
f 298 301 76
f 296 301 298
f 18 163 296
f 163 17 295
f 296 295 75
f 163 295 296
f 16 155 162
f 155 17 163
f 162 163 18
f 155 163 162
f 18 161 162
f 161 15 154
f 162 154 16
f 161 154 162
f 10 149 158
f 149 13 159
f 158 159 18
f 149 159 158
f 8 144 157
f 144 10 158
f 157 158 18
f 144 158 157
f 79 318 310
f 318 80 311
f 310 311 8
f 318 311 310
f 85 337 336
f 337 80 318
f 336 318 79
f 337 318 336
f 87 359 348
f 359 90 360
f 348 360 88
f 359 360 348
f 88 347 348
f 347 82 346
f 348 346 87
f 347 346 348
f 90 356 360
f 356 82 347
f 360 347 88
f 356 347 360
f 47 444 448
f 444 116 452
f 448 452 117
f 444 452 448
f 117 447 448
f 447 46 222
f 448 222 47
f 447 222 448
f 118 453 457
f 453 46 447
f 457 447 117
f 453 447 457
f 101 388 450
f 388 91 449
f 450 449 117
f 388 449 450
f 117 449 457
f 449 91 454
f 457 454 118
f 449 454 457
f 117 451 450
f 451 102 391
f 450 391 101
f 451 391 450
f 117 452 451
f 452 116 445
f 451 445 102
f 452 445 451
f 47 221 220
f 221 13 151
f 220 151 12
f 221 151 220
f 12 151 147
f 151 13 150
f 147 150 11
f 151 150 147
f 48 226 225
f 226 47 220
f 225 220 12
f 226 220 225
f 12 147 225
f 147 11 224
f 225 224 48
f 147 224 225
f 127 498 499
f 498 80 337
f 499 337 85
f 498 337 499
f 85 502 499
f 502 128 505
f 499 505 127
f 502 505 499
f 126 494 501
f 494 80 498
f 501 498 127
f 494 498 501
f 127 500 501
f 500 113 496
f 501 496 126
f 500 496 501
f 127 505 500
f 505 128 503
f 500 503 113
f 505 503 500
f 2 309 142
f 309 79 310
f 142 310 8
f 309 310 142
f 82 321 320
f 321 79 309
f 320 309 2
f 321 309 320
f 8 157 142
f 157 18 156
f 142 156 2
f 157 156 142
f 81 322 319
f 322 82 320
f 319 320 2
f 322 320 319
f 2 165 130
f 165 19 164
f 130 164 1
f 165 164 130
f 2 156 165
f 156 18 166
f 165 166 19
f 156 166 165
f 2 130 132
f 130 1 131
f 132 131 3
f 130 131 132
f 3 341 132
f 341 87 340
f 132 340 2
f 341 340 132
f 87 345 340
f 345 81 319
f 340 319 2
f 345 319 340
f 15 161 153
f 161 18 160
f 153 160 14
f 161 160 153
f 14 160 152
f 160 18 159
f 152 159 13
f 160 159 152
f 45 216 215
f 216 44 212
f 215 212 14
f 216 212 215
f 44 213 212
f 213 15 153
f 212 153 14
f 213 153 212
f 14 218 215
f 218 46 219
f 215 219 45
f 218 219 215
f 14 152 218
f 152 13 217
f 218 217 46
f 152 217 218
f 84 325 326
f 325 82 323
f 326 323 83
f 325 323 326
f 84 324 325
f 324 79 321
f 325 321 82
f 324 321 325
f 83 350 326
f 350 89 351
f 326 351 84
f 350 351 326
f 89 349 351
f 349 79 324
f 351 324 84
f 349 324 351
f 86 353 339
f 353 89 352
f 339 352 85
f 353 352 339
f 85 336 339
f 336 79 338
f 339 338 86
f 336 338 339
f 86 338 353
f 338 79 349
f 353 349 89
f 338 349 353
f 112 434 435
f 434 99 386
f 435 386 100
f 434 386 435
f 111 430 436
f 430 99 434
f 436 434 112
f 430 434 436

