# https://github.com/mikedh/trimesh
v -0.00511352 0.02058408 -0.03869982
v 0.00230663 0.02033623 -0.03892121
v 0.00230659 -0.02045159 -0.03892147
v -0.00511352 -0.02069972 -0.03869982
v -0.00499998 -0.00455784 -0.04455790
v -0.02057632 -0.01215790 -0.04280003
v -0.02057630 0.01204222 -0.04280004
v 0.00488655 0.02644218 -0.01491879
v 0.00546346 0.02644074 -0.01474768
v -0.00771733 0.02644218 -0.01367233
v -0.01312189 0.02644022 -0.00947910
v -0.01234195 0.02644070 -0.00968154
v -0.01655172 0.02643930 -0.00942258
v -0.01820941 0.02642089 -0.01040392
v -0.01922358 0.02630483 -0.00901218
v -0.01963340 0.02616811 -0.00791994
v -0.01716194 0.02643042 -0.00923287
v -0.01785073 0.02643460 -0.01755792
v -0.02192630 0.02118270 -0.03529539
v -0.01960297 0.02510803 -0.02936101
v 0.00488618 -0.02655783 -0.01492015
v 0.00546336 -0.02655640 -0.01474826
v -0.00771732 -0.02655783 -0.01367233
v -0.01234169 -0.02655635 -0.00968160
v -0.01312207 -0.02655588 -0.00947934
v -0.01657637 -0.02655441 -0.00939656
v -0.01786423 -0.02650843 -0.00884355
v -0.01980431 -0.02628440 -0.00814738
v -0.01830206 -0.02653138 -0.01032822
v -0.01785079 -0.02655024 -0.01755792
v -0.01960298 -0.02522368 -0.02936100
v -0.02192630 -0.02129838 -0.03529534
v 0.01593937 -0.02451267 0.00281826
v 0.01326241 -0.02522197 0.00513243
v 0.01091878 -0.02543716 0.00784269
v 0.00835920 -0.02552491 0.01006825
v 0.00550547 -0.02555266 0.01173984
v 0.00239156 -0.02552993 0.01284376
v -0.00088853 -0.02547585 0.01325969
v -0.00431389 -0.02538336 0.01294983
v -0.00744545 -0.02526879 0.01192874
v -0.00962870 -0.02537807 0.00968474
v 0.01427092 0.02492991 0.00384848
v 0.01211101 0.02523688 0.00653951
v 0.00966834 0.02537911 0.00900461
v 0.00695414 0.02543572 0.01095089
v 0.00396685 0.02543639 0.01234772
v 0.00075509 0.02538942 0.01314752
v -0.00259464 0.02531718 0.01320801
v -0.00603944 0.02519007 0.01255526
v -0.00865189 0.02514181 0.01112285
v -0.01077788 0.02523214 0.00855671
v -0.04374466 -0.00005786 -0.00611343
v -0.04372321 -0.00197053 -0.00619995
v -0.04360779 -0.00539960 -0.00691829
v -0.04320595 -0.00929709 -0.00831398
v -0.04193058 -0.01417939 -0.01049449
v -0.03958478 -0.01891806 -0.01444201
v -0.03897202 -0.01982487 -0.01875894
v -0.03971817 -0.01785647 -0.02413629
v -0.04010540 -0.01457076 -0.02904483
v -0.04019451 -0.01045213 -0.03273691
v -0.03988356 -0.00523322 -0.03560958
v -0.03941465 -0.00005782 -0.03688281
v -0.03988333 0.00511766 -0.03560984
v -0.04019445 0.01033646 -0.03273702
v -0.04010563 0.01445493 -0.02904465
v -0.03971814 0.01774087 -0.02413627
v -0.03897197 0.01970928 -0.01875900
v -0.03958493 0.01880231 -0.01444240
v -0.04193062 0.01406359 -0.01049437
v -0.04320588 0.00918157 -0.00831388
v -0.04360778 0.00528402 -0.00691829
v -0.04372326 0.00185483 -0.00620011
v -0.01981783 -0.02644817 -0.01660678
v -0.01982058 -0.02644798 -0.01851998
v -0.01982053 0.02633234 -0.01851999
v -0.01981777 0.02633254 -0.01660675
v 0.00697691 0.02009702 -0.03855399
v 0.02519835 0.02036785 -0.02017642
v 0.02366096 0.02010343 -0.02525399
v 0.02074324 0.02009718 -0.02990390
v 0.01684610 0.02009705 -0.03380119
v 0.01217924 0.02009721 -0.03673345
v 0.02366113 -0.02021885 -0.02525405
v 0.02519832 -0.02048366 -0.02017591
v 0.00697695 -0.02021285 -0.03855383
v 0.01217927 -0.02021271 -0.03673356
v 0.01684592 -0.02021288 -0.03380116
v 0.02074337 -0.02021276 -0.02990386
v 0.03007387 -0.01133529 0.00432171
v 0.02814636 -0.01391635 0.00927425
v 0.02590080 -0.01435279 0.01478707
v 0.02255142 -0.01460365 0.01978652
v -0.01382004 -0.01417981 0.02604596
v -0.02327938 -0.01461105 0.01942064
v 0.00247395 -0.01476429 0.02975482
v -0.00026342 -0.01470574 0.02980139
v -0.02646662 -0.01516449 0.01623393
v -0.00977734 -0.01427145 0.02805722
v -0.00468445 -0.01446276 0.02946392
v 0.01824323 -0.01474117 0.02395370
v 0.01317443 -0.01477477 0.02710939
v 0.00754345 -0.01471024 0.02913008
v -0.02925425 -0.01527992 0.01276079
v 0.03117780 0.00394219 -0.01892124
v 0.03148448 0.00436219 -0.01522487
v 0.03007396 0.01121942 0.00432165
v 0.02813908 0.01380729 0.00928818
v 0.02590454 0.01423639 0.01478048
v -0.00468490 0.01436291 0.02945402
v 0.01317586 0.01463691 0.02712434
v 0.01825870 0.01460342 0.02395924
v 0.02256335 0.01447529 0.01978425
v -0.00975483 0.01417500 0.02805403
v -0.01383669 0.01407268 0.02603025
v -0.02328808 0.01445228 0.01944752
v -0.02647078 0.01504627 0.01623214
v -0.00027332 0.01460204 0.02979339
v 0.00247139 0.01463740 0.02976209
v 0.00753673 0.01457998 0.02914106
v -0.02925676 0.01515983 0.01276246
v -0.04450000 -0.00005783 -0.01505791
v 0.03148447 -0.00447781 -0.01522482
v 0.03117782 -0.00405783 -0.01892111
v 0.03001621 0.01342754 -0.01683155
v 0.03088030 0.00648855 -0.02061499
v 0.03088031 -0.00660419 -0.02061493
v 0.03001648 -0.01354247 -0.01683159
v -0.00174996 0.02058431 -0.03870004
v -0.00174996 -0.00005782 -0.04455790
v 0.00262138 -0.00005781 -0.04452643
v -0.00174998 -0.02069970 -0.03870029
v -0.00499998 0.00094217 -0.04455790
v -0.00174998 -0.00555783 -0.04455790
v -0.00499998 -0.00555784 -0.04455790
v -0.01124998 0.00094218 -0.04455791
v -0.01246840 -0.01317298 -0.04301122
v -0.01124998 -0.00455784 -0.04455790
v -0.01246841 0.01305730 -0.04301123
v -0.01891774 -0.00005783 -0.04450759
v 0.00319307 0.02644218 -0.01973911
v 0.00514061 0.02644218 -0.01494550
v -0.00141561 0.02644218 -0.01429631
v -0.00375576 0.02644218 -0.01241746
v -0.00343831 0.02644079 -0.01222108
v -0.01271863 0.02644072 -0.00960230
v -0.00580693 0.02644218 -0.01233903
v -0.01210866 0.02644218 -0.01171511
v -0.01482006 0.02644029 -0.00948369
v -0.01444923 0.02644217 -0.00983759
v -0.01817049 0.02642107 -0.01022565
v -0.01909970 0.02630458 -0.00882087
v -0.01671879 0.02643934 -0.00945825
v -0.01731678 0.02643043 -0.00933562
v -0.00789999 0.02644218 -0.02105792
v -0.00620694 0.02644218 -0.01623911
v -0.01250866 0.02644218 -0.01561512
v -0.01690003 0.02644218 -0.01365789
v -0.01785085 0.02643459 -0.01405789
v -0.01726975 0.02644218 -0.01390481
v -0.01718295 0.02644218 -0.01377505
v -0.01705314 0.02644218 -0.01368834
v -0.01343015 0.02091761 -0.03717840
v -0.02160257 0.01918353 -0.03749935
v -0.01227596 0.02517129 -0.03048270
v -0.00789999 0.02644218 -0.02355793
v -0.01785072 0.02643459 -0.02005794
v -0.02140734 0.02205545 -0.03436407
v 0.00513986 -0.02655783 -0.01494800
v -0.00141559 -0.02655783 -0.01429630
v -0.00343856 -0.02655646 -0.01222195
v -0.00412699 -0.02655783 -0.01233894
v -0.00387324 -0.02655783 -0.01236656
v -0.01042876 -0.02655783 -0.01171510
v -0.01271860 -0.02655638 -0.00960263
v -0.01482013 -0.02655594 -0.00948367
v -0.01502013 -0.02655782 -0.00981126
v -0.01679477 -0.02655446 -0.00945752
v -0.01516654 -0.02655782 -0.00995783
v -0.01804266 -0.02650813 -0.00901512
v -0.01522012 -0.02655782 -0.01015787
v -0.01823555 -0.02653159 -0.01009281
v -0.01250865 -0.02655783 -0.01561512
v -0.01522011 -0.02655783 -0.01365789
v -0.01785081 -0.02655024 -0.01405789
v -0.01227596 -0.02528693 -0.03048269
v -0.01785077 -0.02655024 -0.02005795
v -0.01343013 -0.02103329 -0.03717836
v -0.02160257 -0.01929922 -0.03749931
v -0.02140734 -0.02217112 -0.03436402
v 0.01545874 -0.02458730 0.00396915
v 0.01184041 -0.02540224 0.00650933
v 0.00941498 -0.02554903 0.00884127
v 0.00679622 -0.02560086 0.01070939
v 0.00362909 -0.02630228 -0.00286265
v -0.00528836 -0.02630221 -0.00032463
v -0.00570654 -0.02630152 -0.00020681
v 0.00390398 -0.02561175 0.01201511
v -0.00682044 -0.02630062 -0.00010075
v -0.00857966 -0.02629863 -0.00003442
v 0.00080507 -0.02557047 0.01279591
v -0.00972085 -0.02629554 -0.00015434
v -0.01006725 -0.02628957 -0.00009225
v -0.00244971 -0.02551216 0.01284128
v -0.01153958 -0.02625682 -0.00017041
v -0.00577266 -0.02539005 0.01226757
v -0.01314525 -0.02616934 -0.00030004
v -0.01524065 -0.02575330 0.00087970
v -0.00865734 -0.02538370 0.01046500
v 0.01318102 0.02509971 0.00521875
v 0.01062807 0.02538112 0.00772163
v 0.00811843 0.02547372 0.00981354
v 0.00414576 0.02618665 -0.00299634
v -0.00516036 0.02618630 -0.00036186
v -0.00477143 0.02618656 -0.00045716
v 0.00536472 0.02550328 0.01140075
v -0.00625751 0.02618552 -0.00012359
v -0.00800140 0.02618418 -0.00007230
v 0.00237642 0.02548546 0.01245806
v -0.00913033 0.02618236 -0.00008313
v -0.00938791 0.02617876 -0.00002683
v -0.00081326 0.02542475 0.01292731
v -0.01068178 0.02616533 -0.00014023
v -0.00410943 0.02534138 0.01264736
v -0.01289218 0.02604593 0.00004069
v -0.01183905 0.02614782 -0.00051940
v -0.00746873 0.02516941 0.01176889
v -0.01578723 0.02555553 0.00074205
v -0.00998589 0.02523656 0.00937728
v -0.04380831 -0.00089463 -0.00639174
v -0.04449999 -0.00135953 -0.01185450
v -0.04381364 -0.00333762 -0.00692475
v -0.04367719 -0.00659828 -0.00796479
v -0.04324690 -0.01014430 -0.00951432
v -0.02488846 -0.02562006 -0.01039960
v -0.02042969 -0.02488876 -0.00111126
v -0.04449999 -0.00502330 -0.01469115
v -0.04195504 -0.01466907 -0.01182353
v -0.02332684 -0.02611960 -0.01307777
v -0.02264632 -0.02622070 -0.01397617
v -0.02373755 -0.02596821 -0.02253762
v -0.03965978 -0.01898306 -0.01613960
v -0.02593635 -0.02413005 -0.02819441
v -0.04449999 -0.00489104 -0.01645477
v -0.04449999 -0.00577541 -0.01798636
v -0.04003131 -0.01812686 -0.02168200
v -0.02703270 -0.01788276 -0.03666111
v -0.02674367 -0.02200458 -0.03185247
v -0.02691723 -0.02045244 -0.03398673
v -0.04057306 -0.01550325 -0.02647553
v -0.02728845 -0.01469614 -0.03922102
v -0.04449999 -0.00454070 -0.02113293
v -0.04066847 -0.01210034 -0.03053654
v -0.02652277 -0.00882329 -0.04230365
v -0.04071949 -0.00770915 -0.03344615
v -0.02473490 -0.00376348 -0.04365208
v -0.02473489 0.00364782 -0.04365208
v -0.04018868 -0.00279084 -0.03569032
v -0.02652274 0.00870764 -0.04230366
v -0.04018847 0.00267530 -0.03569056
v -0.02728843 0.01458045 -0.03922106
v -0.04449998 0.00163228 -0.02303711
v -0.04071929 0.00759357 -0.03344643
v -0.02703269 0.01776706 -0.03666118
v -0.02691722 0.02033677 -0.03398679
v -0.02674366 0.02188896 -0.03185244
v -0.04449999 -0.00050495 -0.02052444
v -0.04449999 0.00059771 -0.02190716
v -0.04449999 0.00140341 -0.02229518
v -0.04449999 0.00228772 -0.02242856
v -0.04066862 0.01198442 -0.03053651
v -0.02593634 0.02401443 -0.02819436
v -0.04057324 0.01538750 -0.02647523
v -0.02255822 0.02611371 -0.01406192
v -0.02326242 0.02601886 -0.01321031
v -0.02373757 0.02585256 -0.02253765
v -0.04003126 0.01801126 -0.02168207
v -0.02429663 0.02571605 -0.01120482
v -0.02525922 0.02532193 -0.00977117
v -0.02077606 0.02477129 -0.00152173
v -0.04449999 0.00521253 -0.01876085
v -0.04449999 0.00565985 -0.01798643
v -0.03965968 0.01886755 -0.01613969
v -0.04195509 0.01455327 -0.01182337
v -0.04449999 0.00490781 -0.01469094
v -0.04324687 0.01002866 -0.00951423
v -0.04449999 -0.00005783 -0.01215199
v -0.04450000 -0.00079670 -0.01265582
v -0.04450000 0.00416878 -0.01418731
v -0.04367713 0.00648287 -0.00796471
v -0.04380832 0.00077888 -0.00639177
v -0.04449999 -0.00091238 -0.01188820
v -0.04381369 0.00322194 -0.00692493
v -0.01920894 -0.02648182 -0.01355421
v -0.01900119 -0.02649440 -0.01709538
v -0.02300717 -0.02620944 -0.01727841
v -0.01900117 -0.02649441 -0.01802045
v -0.01920427 -0.02648207 -0.02058050
v -0.02300254 -0.02620974 -0.01830466
v -0.01979956 -0.02644939 -0.01755790
v -0.01900105 0.02637877 -0.01802046
v -0.01920423 0.02636643 -0.02058050
v -0.02300255 0.02609410 -0.01830469
v -0.01920887 0.02636618 -0.01355417
v -0.01900103 0.02637877 -0.01709539
v -0.02300719 0.02609380 -0.01727839
v -0.01979950 0.02633375 -0.01755793
v 0.00419605 0.02058411 -0.03848595
v 0.00806148 0.02644218 -0.01587922
v 0.00838703 0.02644076 -0.01568184
v 0.01575046 0.02521035 -0.00590863
v 0.01088321 0.02611844 -0.00561826
v 0.00937687 0.02617261 -0.00492321
v 0.00823143 0.02618285 -0.00432229
v 0.00711587 0.02618592 -0.00391354
v 0.00600487 0.02644218 -0.02172733
v 0.00769795 0.02644218 -0.01690849
v 0.02420752 0.02058430 -0.02257897
v 0.02188853 0.02058426 -0.02736889
v 0.01852671 0.02058412 -0.03158468
v 0.00366952 0.02644218 -0.02406304
v 0.00945288 0.02058411 -0.03728613
v 0.00817435 0.02644218 -0.02123224
v 0.00757883 0.02644218 -0.02218047
v 0.01431119 0.02058412 -0.03494646
v 0.02851626 -0.00005784 -0.02760097
v 0.00806109 -0.02655783 -0.01588038
v 0.00838687 -0.02655642 -0.01568230
v 0.00175932 -0.02655783 -0.01525653
v 0.01733627 -0.02477042 -0.00619784
v 0.01291760 -0.02599752 -0.00580406
v 0.01001802 -0.02627414 -0.00527311
v 0.00879738 -0.02629489 -0.00460143
v 0.00766213 -0.02630068 -0.00409451
v 0.00656014 -0.02630217 -0.00379296
v 0.03045813 -0.00005783 -0.02236415
v 0.02973086 -0.00005783 -0.02453016
v 0.02420765 -0.02069973 -0.02257925
v 0.00485181 -0.00005781 -0.04430680
v 0.00419593 -0.02069969 -0.03848603
v -0.00063738 -0.02655782 -0.02443296
v -0.00678738 -0.02655783 -0.02093258
v -0.00678738 -0.02655782 -0.02343261
v 0.00817558 -0.00005781 -0.04380576
v 0.01138769 -0.00005783 -0.04281504
v 0.01451656 -0.00005785 -0.04158695
v 0.00945312 -0.02069976 -0.03728603
v 0.00000880 -0.02655783 -0.01802429
v -0.00478253 -0.02655783 -0.01996708
v 0.02020474 -0.00005781 -0.03801281
v 0.01742754 -0.00005783 -0.03990639
v 0.00948554 -0.02655783 -0.01960854
v 0.00573019 -0.02655782 -0.02334198
v 0.01431093 -0.02069976 -0.03494663
v 0.02684857 -0.00005782 -0.03048531
v 0.02495495 -0.00005780 -0.03326261
v 0.02266873 -0.00005780 -0.03572667
v 0.02188881 -0.02069972 -0.02736877
v 0.01027754 -0.02655782 -0.01881699
v 0.01852668 -0.02069987 -0.03158458
v 0.02558368 -0.01928689 -0.00539439
v 0.01918898 -0.02260572 0.00525564
v 0.01853348 -0.02273358 0.00683037
v 0.02320678 -0.02123256 -0.00405677
v 0.02975766 -0.01165875 0.00607395
v 0.01732165 -0.02298247 0.00876360
v 0.01601400 -0.02316453 0.01041976
v 0.02703271 -0.01440799 0.01182419
v 0.01460218 -0.02330029 0.01205064
v 0.01310189 -0.02339487 0.01339391
v 0.02420659 -0.01478488 0.01715750
v -0.00967635 -0.02265079 0.01735333
v -0.01413291 -0.02291445 0.01377783
v -0.01859009 -0.01421457 0.02287000
v 0.00225480 -0.02334408 0.01868885
v 0.00073699 -0.02331229 0.01885422
v -0.00041718 -0.02322830 0.01903301
v 0.00101390 -0.01489040 0.02970233
v -0.01483515 -0.02325402 0.01230448
v -0.01558053 -0.02363009 0.01051146
v -0.02447284 -0.01485781 0.01825918
v -0.00616520 -0.02296083 0.01842676
v -0.00805105 -0.02281722 0.01787407
v -0.01221978 -0.01437391 0.02678892
v -0.00218036 -0.02319116 0.01894152
v -0.00409197 -0.02310685 0.01875500
v -0.00209678 -0.01479833 0.02958461
v -0.00727622 -0.01462846 0.02866474
v 0.01148964 -0.02345666 0.01473978
v 0.00982176 -0.02348978 0.01576350
v 0.02035980 -0.01500991 0.02174990
v 0.00809071 -0.02349337 0.01678313
v 0.01565257 -0.01511733 0.02541378
v 0.00616572 -0.02347431 0.01755534
v 0.00431655 -0.02342510 0.01823357
v 0.00449008 -0.01495721 0.02942831
v 0.01029125 -0.01509267 0.02801368
v -0.01610665 -0.02394504 0.00861016
v -0.03740163 -0.00243407 0.00589148
v -0.03747473 -0.00436252 0.00556544
v -0.03725218 -0.00791993 0.00479597
v -0.03621711 -0.01232314 0.00359414
v -0.03319848 -0.01793494 0.00158838
v -0.02804104 -0.02260191 -0.00132931
v -0.02779290 -0.01562476 0.01421694
v 0.03150001 -0.00005783 -0.00583394
v 0.03136158 0.00394220 -0.01704988
v 0.02558334 0.01917158 -0.00539434
v 0.03146853 -0.00005780 0.00401139
v 0.03149099 0.00454279 -0.00583393
v 0.01890454 0.02254028 0.00613215
v 0.02322663 0.02110216 -0.00405847
v 0.03124888 -0.00005782 0.00624191
v 0.03074783 -0.00005783 0.00956562
v 0.02975716 -0.00005782 0.01277757
v 0.02975777 0.01154285 0.00607384
v 0.01789181 0.02275606 0.00784415
v 0.01674312 0.02295393 0.00957302
v 0.02852905 -0.00005781 0.01590652
v 0.02684847 -0.00005781 0.01881751
v 0.02702010 0.01431435 0.01181987
v -0.00318694 0.02302316 0.01890569
v -0.00815192 -0.00005781 0.03155680
v -0.00531471 -0.00005781 0.03231557
v 0.00891936 0.02338019 0.01633391
v 0.00716715 0.02337286 0.01718203
v 0.01451654 -0.00005785 0.02991903
v 0.01138759 -0.00005783 0.03114714
v 0.01228874 0.02331496 0.01410339
v 0.01071037 0.02336023 0.01526158
v 0.02266872 -0.00005783 0.02405874
v 0.02020465 -0.00005785 0.02634496
v 0.01742750 -0.00005785 0.02823847
v 0.01566655 0.01496205 0.02543599
v 0.01528799 0.02312415 0.01127283
v 0.01391286 0.02323238 0.01272315
v 0.02495495 -0.00005781 0.02159466
v 0.02420852 0.01466562 0.01715873
v 0.02037034 0.01487163 0.02176028
v -0.00505909 0.02293218 0.01857796
v -0.00701635 0.02278717 0.01821058
v -0.01356849 -0.00005780 0.02931760
v -0.01093346 -0.00005780 0.03061434
v -0.00726957 0.01455009 0.02864244
v -0.00906446 0.02258466 0.01758864
v -0.01041676 0.02252492 0.01686913
v -0.01528486 -0.00005780 0.02837490
v -0.01222328 0.01424561 0.02679568
v -0.01457075 0.02279674 0.01346473
v -0.02012715 -0.00005780 0.02517555
v -0.02494499 -0.00005781 0.02193463
v -0.01857600 0.01414196 0.02284881
v -0.01522481 0.02339443 0.01125042
v -0.01583534 0.02374554 0.00930854
v -0.02647937 -0.00005782 0.02070903
v -0.02869548 -0.00005783 0.01876905
v -0.02449129 0.01469621 0.01828206
v 0.00027081 0.02315287 0.01895116
v -0.00120411 0.02311734 0.01893911
v 0.00101389 -0.00005783 0.03288997
v -0.00045185 -0.00005783 0.03286597
v -0.00240285 -0.00005782 0.03269828
v -0.00209529 0.01470487 0.02957054
v 0.00147274 0.02318698 0.01886702
v 0.00262136 -0.00005783 0.03285851
v 0.00485183 -0.00005781 0.03263887
v 0.00101386 0.01477474 0.02970233
v 0.00521508 0.02333580 0.01794560
v 0.00332167 0.02327432 0.01846763
v 0.00817557 -0.00005779 0.03213783
v 0.01029718 0.01494929 0.02803101
v 0.00449083 0.01483161 0.02943472
v -0.01645342 0.02382691 0.00820214
v -0.03740162 0.00231838 0.00589149
v -0.02804613 0.02248339 -0.00132728
v -0.03319863 0.01781910 0.00158844
v -0.03621709 0.01220754 0.00359413
v -0.03725217 0.00780436 0.00479597
v -0.03747473 0.00424684 0.00556545
v -0.03063912 -0.00005783 0.01655623
v -0.03218657 -0.00005784 0.01458153
v -0.02779374 0.01550764 0.01421759
v -0.04450000 -0.00209836 -0.01410874
v -0.04450000 -0.00285046 -0.01740395
v -0.04450000 0.00228768 -0.01817840
v -0.04450000 0.00286697 -0.01564035
v -0.04450000 0.00124383 -0.01360499
v 0.03149099 -0.00465837 -0.00583395
v 0.03148269 -0.00005786 -0.01539017
v 0.03117781 -0.00005782 -0.01892120
v 0.03136158 -0.00005783 -0.01704980
v 0.03136159 -0.00405786 -0.01704972
v 0.02964847 0.01421075 -0.01770112
v 0.03117782 0.00509223 -0.01892113
v 0.03140447 0.00569332 -0.01621932
v 0.02971645 0.01315039 -0.00582494
v 0.03084054 0.00666901 -0.02079413
v 0.03077602 -0.00015782 -0.02110647
v 0.03096820 0.00509220 -0.02016906
v 0.03096559 0.00656899 -0.02016844
v 0.03084055 -0.00678465 -0.02079408
v 0.03096819 -0.00120782 -0.02016912
v 0.03096822 -0.00520784 -0.02016897
v 0.03086552 -0.00005782 -0.02069469
v 0.02964877 -0.01432569 -0.01770114
v 0.02971679 -0.01326528 -0.00582504
v 0.03140447 -0.00580890 -0.01621925
v 0.03117783 -0.00520786 -0.01892101
v 0.03096561 -0.00668463 -0.02016836
f 51 230 454
f 230 52 455
f 454 455 118
f 230 455 454
f 118 458 454
f 458 117 450
f 454 450 51
f 458 450 454
f 51 447 228
f 447 116 446
f 228 446 50
f 447 446 228
f 51 450 447
f 450 117 453
f 447 453 116
f 450 453 447
f 42 210 381
f 210 41 380
f 381 380 99
f 210 380 381
f 42 237 209
f 237 58 236
f 209 236 28
f 237 236 209
f 87 342 341
f 342 4 133
f 341 133 3
f 342 133 341
f 31 187 344
f 187 4 342
f 344 342 87
f 187 342 344
f 87 343 344
f 343 30 188
f 344 188 31
f 343 188 344
f 99 380 382
f 380 41 374
f 382 374 96
f 380 374 382
f 118 457 456
f 457 99 382
f 456 382 96
f 457 382 456
f 96 452 456
f 452 117 458
f 456 458 118
f 452 458 456
f 56 289 484
f 289 73 488
f 484 488 123
f 289 488 484
f 28 236 240
f 236 58 243
f 240 243 59
f 236 243 240
f 59 241 240
f 241 29 183
f 240 183 28
f 241 183 240
f 52 230 229
f 230 51 226
f 229 226 16
f 230 226 229
f 72 291 478
f 291 73 479
f 478 479 122
f 291 479 478
f 118 455 483
f 455 52 474
f 483 474 122
f 455 474 483
f 122 481 483
f 481 99 457
f 483 457 118
f 481 457 483
f 35 370 194
f 370 94 371
f 194 371 36
f 370 371 194
f 105 399 406
f 399 42 381
f 406 381 99
f 399 381 406
f 58 237 405
f 237 42 399
f 405 399 105
f 237 399 405
f 105 482 400
f 482 122 475
f 400 475 53
f 482 475 400
f 99 481 406
f 481 122 482
f 406 482 105
f 481 482 406
f 108 410 411
f 410 91 407
f 411 407 107
f 410 407 411
f 110 421 420
f 421 94 372
f 420 372 93
f 421 372 420
f 93 372 368
f 372 94 370
f 368 370 35
f 372 370 368
f 35 194 333
f 194 36 334
f 333 334 86
f 194 334 333
f 86 334 335
f 334 36 195
f 335 195 37
f 334 195 335
f 32 191 250
f 191 31 249
f 250 249 61
f 191 249 250
f 32 189 191
f 189 4 187
f 191 187 31
f 189 187 191
f 4 189 138
f 189 32 190
f 138 190 6
f 189 190 138
f 6 190 248
f 190 32 250
f 248 250 61
f 190 250 248
f 50 446 442
f 446 116 449
f 442 449 115
f 446 449 442
f 100 424 444
f 424 111 445
f 444 445 115
f 424 445 444
f 101 425 389
f 425 111 424
f 389 424 100
f 425 424 389
f 101 386 388
f 386 39 378
f 388 378 98
f 386 378 388
f 41 384 373
f 384 100 385
f 373 385 95
f 384 385 373
f 95 375 373
f 375 96 374
f 373 374 41
f 375 374 373
f 95 443 448
f 443 115 449
f 448 449 116
f 443 449 448
f 100 444 385
f 444 115 443
f 385 443 95
f 444 443 385
f 116 453 448
f 453 117 451
f 448 451 95
f 453 451 448
f 117 452 451
f 452 96 375
f 451 375 95
f 452 375 451
f 73 289 288
f 289 56 234
f 288 234 55
f 289 234 288
f 56 403 234
f 403 105 402
f 234 402 55
f 403 402 234
f 61 249 251
f 249 31 244
f 251 244 60
f 249 244 251
f 31 242 244
f 242 59 247
f 244 247 60
f 242 247 244
f 60 245 485
f 245 56 484
f 485 484 123
f 245 484 485
f 58 238 246
f 238 56 245
f 246 245 60
f 238 245 246
f 60 247 246
f 247 59 243
f 246 243 58
f 247 243 246
f 31 188 299
f 188 30 298
f 299 298 76
f 188 298 299
f 76 300 299
f 300 59 242
f 299 242 31
f 300 242 299
f 40 383 207
f 383 100 384
f 207 384 41
f 383 384 207
f 40 387 383
f 387 101 389
f 383 389 100
f 387 389 383
f 39 386 205
f 386 101 387
f 205 387 40
f 386 387 205
f 38 336 199
f 336 86 335
f 199 335 37
f 336 335 199
f 37 393 395
f 393 103 398
f 395 398 104
f 393 398 395
f 104 396 395
f 396 38 199
f 395 199 37
f 396 199 395
f 37 195 391
f 195 36 390
f 391 390 102
f 195 390 391
f 102 394 391
f 394 103 393
f 391 393 37
f 394 393 391
f 102 390 392
f 390 36 371
f 392 371 94
f 390 371 392
f 94 432 392
f 432 113 433
f 392 433 102
f 432 433 392
f 102 433 394
f 433 113 434
f 394 434 103
f 433 434 394
f 57 235 239
f 235 56 238
f 239 238 58
f 235 238 239
f 58 405 239
f 405 105 404
f 239 404 57
f 405 404 239
f 57 404 235
f 404 105 403
f 235 403 56
f 404 403 235
f 110 420 422
f 420 93 416
f 422 416 109
f 420 416 422
f 91 410 414
f 410 108 417
f 414 417 109
f 410 417 414
f 107 407 490
f 407 91 489
f 490 489 124
f 407 489 490
f 124 493 490
f 493 125 492
f 490 492 107
f 493 492 490
f 25 185 175
f 185 30 184
f 175 184 23
f 185 184 175
f 25 182 185
f 182 29 186
f 185 186 30
f 182 186 185
f 28 183 180
f 183 29 182
f 180 182 25
f 183 182 180
f 24 197 176
f 197 38 198
f 176 198 25
f 197 198 176
f 25 198 200
f 198 38 202
f 200 202 39
f 198 202 200
f 4 138 136
f 138 6 139
f 136 139 5
f 138 139 136
f 5 139 134
f 139 6 137
f 134 137 1
f 139 137 134
f 3 133 135
f 133 4 136
f 135 136 5
f 133 136 135
f 5 134 135
f 134 1 131
f 135 131 3
f 134 131 135
f 1 137 140
f 137 6 141
f 140 141 7
f 137 141 140
f 64 257 259
f 257 6 255
f 259 255 63
f 257 255 259
f 65 260 261
f 260 7 258
f 261 258 64
f 260 258 261
f 64 258 257
f 258 7 141
f 257 141 6
f 258 141 257
f 72 478 287
f 478 122 477
f 287 477 71
f 478 477 287
f 126 497 496
f 497 108 411
f 496 411 107
f 497 411 496
f 30 343 350
f 343 87 354
f 350 354 89
f 343 354 350
f 23 184 349
f 184 30 350
f 349 350 89
f 184 350 349
f 89 353 349
f 353 86 330
f 349 330 23
f 353 330 349
f 121 469 470
f 469 47 220
f 470 220 48
f 469 220 470
f 12 216 146
f 216 47 214
f 146 214 9
f 216 214 146
f 9 143 146
f 143 8 145
f 146 145 12
f 143 145 146
f 45 430 437
f 430 113 440
f 437 440 114
f 430 440 437
f 110 419 439
f 419 44 436
f 439 436 114
f 419 436 439
f 44 212 436
f 212 45 437
f 436 437 114
f 212 437 436
f 114 438 439
f 438 94 421
f 439 421 110
f 438 421 439
f 114 440 438
f 440 113 432
f 438 432 94
f 440 432 438
f 112 427 472
f 427 47 469
f 472 469 121
f 427 469 472
f 103 434 428
f 434 113 435
f 428 435 112
f 434 435 428
f 121 471 472
f 471 104 429
f 472 429 112
f 471 429 472
f 112 429 428
f 429 104 398
f 428 398 103
f 429 398 428
f 46 431 213
f 431 113 430
f 213 430 45
f 431 430 213
f 47 427 217
f 427 112 426
f 217 426 46
f 427 426 217
f 46 426 431
f 426 112 435
f 431 435 113
f 426 435 431
f 74 293 292
f 293 55 232
f 292 232 53
f 293 232 292
f 73 288 294
f 288 55 293
f 294 293 74
f 288 293 294
f 53 475 292
f 475 122 480
f 292 480 74
f 475 480 292
f 74 480 294
f 480 122 479
f 294 479 73
f 480 479 294
f 54 401 231
f 401 105 400
f 231 400 53
f 401 400 231
f 53 232 231
f 232 55 233
f 231 233 54
f 232 233 231
f 54 233 401
f 233 55 402
f 401 402 105
f 233 402 401
f 61 251 254
f 251 60 253
f 254 253 62
f 251 253 254
f 62 252 254
f 252 6 248
f 254 248 61
f 252 248 254
f 63 255 256
f 255 6 252
f 256 252 62
f 255 252 256
f 30 186 296
f 186 29 295
f 296 295 75
f 186 295 296
f 75 301 296
f 301 76 298
f 296 298 30
f 301 298 296
f 29 241 295
f 241 59 297
f 295 297 75
f 241 297 295
f 59 300 297
f 300 76 301
f 297 301 75
f 300 301 297
f 80 310 311
f 310 8 143
f 311 143 9
f 310 143 311
f 80 314 313
f 314 45 212
f 313 212 44
f 314 212 313
f 80 315 314
f 315 46 213
f 314 213 45
f 315 213 314
f 9 214 311
f 214 47 316
f 311 316 80
f 214 316 311
f 47 217 316
f 217 46 315
f 316 315 80
f 217 315 316
f 80 413 409
f 413 109 417
f 409 417 108
f 413 417 409
f 108 497 409
f 497 126 494
f 409 494 80
f 497 494 409
f 39 205 201
f 205 40 203
f 201 203 26
f 205 203 201
f 26 177 201
f 177 25 200
f 201 200 39
f 177 200 201
f 86 336 329
f 336 38 196
f 329 196 22
f 336 196 329
f 22 196 172
f 196 38 197
f 172 197 24
f 196 197 172
f 24 176 172
f 176 25 174
f 172 174 22
f 176 174 172
f 38 396 376
f 396 104 397
f 376 397 97
f 396 397 376
f 98 378 379
f 378 39 377
f 379 377 97
f 378 377 379
f 39 202 377
f 202 38 376
f 377 376 97
f 202 376 377
f 91 414 366
f 414 109 415
f 366 415 92
f 414 415 366
f 92 415 369
f 415 109 416
f 369 416 93
f 415 416 369
f 92 365 366
f 365 86 362
f 366 362 91
f 365 362 366
f 92 363 365
f 363 33 331
f 365 331 86
f 363 331 365
f 35 333 193
f 333 86 332
f 193 332 34
f 333 332 193
f 86 331 332
f 331 33 192
f 332 192 34
f 331 192 332
f 34 367 193
f 367 93 368
f 193 368 35
f 367 368 193
f 34 364 367
f 364 92 369
f 367 369 93
f 364 369 367
f 33 363 192
f 363 92 364
f 192 364 34
f 363 364 192
f 125 493 509
f 493 124 508
f 509 508 129
f 493 508 509
f 91 362 507
f 362 86 506
f 507 506 129
f 362 506 507
f 129 508 507
f 508 124 489
f 507 489 91
f 508 489 507
f 67 271 270
f 271 64 259
f 270 259 63
f 271 259 270
f 67 268 486
f 268 60 485
f 486 485 123
f 268 485 486
f 63 256 270
f 256 62 269
f 270 269 67
f 256 269 270
f 67 269 268
f 269 62 253
f 268 253 60
f 269 253 268
f 20 267 273
f 267 67 274
f 273 274 68
f 267 274 273
f 70 280 279
f 280 16 153
f 279 153 15
f 280 153 279
f 70 285 476
f 285 71 477
f 476 477 122
f 285 477 476
f 68 274 283
f 274 67 282
f 283 282 70
f 274 282 283
f 70 290 286
f 290 73 291
f 286 291 72
f 290 291 286
f 72 287 286
f 287 71 285
f 286 285 70
f 287 285 286
f 52 229 281
f 229 16 280
f 281 280 70
f 229 280 281
f 70 476 281
f 476 122 474
f 281 474 52
f 476 474 281
f 123 488 487
f 488 73 290
f 487 290 70
f 488 290 487
f 70 282 487
f 282 67 486
f 487 486 123
f 282 486 487
f 107 492 408
f 492 125 491
f 408 491 106
f 492 491 408
f 106 495 408
f 495 126 496
f 408 496 107
f 495 496 408
f 83 351 326
f 351 89 352
f 326 352 84
f 351 352 326
f 87 345 346
f 345 79 323
f 346 323 84
f 345 323 346
f 121 470 473
f 470 48 465
f 473 465 120
f 470 465 473
f 120 467 473
f 467 104 471
f 473 471 121
f 467 471 473
f 120 466 467
f 466 97 397
f 467 397 104
f 466 397 467
f 50 442 225
f 442 115 441
f 225 441 49
f 442 441 225
f 49 441 423
f 441 115 445
f 423 445 111
f 441 445 423
f 13 151 148
f 151 12 145
f 148 145 8
f 151 145 148
f 8 144 148
f 144 10 149
f 148 149 13
f 144 149 148
f 13 221 219
f 221 49 223
f 219 223 48
f 221 223 219
f 43 312 211
f 312 80 313
f 211 313 44
f 312 313 211
f 109 413 412
f 413 80 312
f 412 312 43
f 413 312 412
f 43 211 418
f 211 44 419
f 418 419 110
f 211 419 418
f 110 422 418
f 422 109 412
f 418 412 43
f 422 412 418
f 90 361 358
f 361 89 351
f 358 351 83
f 361 351 358
f 86 353 360
f 353 89 361
f 360 361 90
f 353 361 360
f 27 204 206
f 204 40 207
f 206 207 41
f 204 207 206
f 27 179 204
f 179 26 203
f 204 203 40
f 179 203 204
f 27 208 181
f 208 42 209
f 181 209 28
f 208 209 181
f 41 210 206
f 210 42 208
f 206 208 27
f 210 208 206
f 28 180 181
f 180 25 178
f 181 178 27
f 180 178 181
f 25 177 178
f 177 26 179
f 178 179 27
f 177 179 178
f 86 329 328
f 329 22 170
f 328 170 21
f 329 170 328
f 21 170 173
f 170 22 174
f 173 174 25
f 170 174 173
f 23 330 171
f 330 86 328
f 171 328 21
f 330 328 171
f 21 173 171
f 173 25 175
f 171 175 23
f 173 175 171
f 125 509 504
f 509 129 510
f 504 510 128
f 509 510 504
f 128 510 502
f 510 129 506
f 502 506 86
f 510 506 502
f 128 503 504
f 503 106 491
f 504 491 125
f 503 491 504
f 65 261 264
f 261 64 263
f 264 263 66
f 261 263 264
f 64 271 263
f 271 67 272
f 263 272 66
f 271 272 263
f 66 262 264
f 262 7 260
f 264 260 65
f 262 260 264
f 66 272 262
f 272 67 265
f 262 265 7
f 272 265 262
f 1 140 164
f 140 7 165
f 164 165 19
f 140 165 164
f 19 169 164
f 169 20 166
f 164 166 1
f 169 166 164
f 7 265 165
f 265 67 266
f 165 266 19
f 265 266 165
f 67 267 266
f 267 20 169
f 266 169 19
f 267 169 266
f 77 303 304
f 303 20 277
f 304 277 69
f 303 277 304
f 69 277 278
f 277 20 273
f 278 273 68
f 277 273 278
f 68 283 278
f 283 70 284
f 278 284 69
f 283 284 278
f 69 284 276
f 284 70 279
f 276 279 15
f 284 279 276
f 15 152 276
f 152 14 275
f 276 275 69
f 152 275 276
f 8 310 318
f 310 80 319
f 318 319 81
f 310 319 318
f 81 319 338
f 319 80 337
f 338 337 86
f 319 337 338
f 88 355 348
f 355 89 354
f 348 354 87
f 355 354 348
f 87 346 348
f 346 84 347
f 348 347 88
f 346 347 348
f 88 347 355
f 347 84 352
f 355 352 89
f 347 352 355
f 119 468 459
f 468 120 465
f 459 465 48
f 468 465 459
f 48 223 459
f 223 49 460
f 459 460 119
f 223 460 459
f 119 460 464
f 460 49 423
f 464 423 111
f 460 423 464
f 119 463 462
f 463 101 388
f 462 388 98
f 463 388 462
f 111 425 464
f 425 101 463
f 464 463 119
f 425 463 464
f 11 150 218
f 150 13 219
f 218 219 48
f 150 219 218
f 12 151 147
f 151 13 150
f 147 150 11
f 151 150 147
f 11 218 215
f 218 48 220
f 215 220 47
f 218 220 215
f 47 216 215
f 216 12 147
f 215 147 11
f 216 147 215
f 17 227 224
f 227 51 228
f 224 228 50
f 227 228 224
f 17 155 227
f 155 16 226
f 227 226 51
f 155 226 227
f 50 225 224
f 225 49 222
f 224 222 17
f 225 222 224
f 49 221 222
f 221 13 154
f 222 154 17
f 221 154 222
f 86 337 499
f 337 80 498
f 499 498 127
f 337 498 499
f 127 505 499
f 505 128 502
f 499 502 86
f 505 502 499
f 127 498 501
f 498 80 494
f 501 494 126
f 498 494 501
f 126 495 501
f 495 106 500
f 501 500 127
f 495 500 501
f 106 503 500
f 503 128 505
f 500 505 127
f 503 505 500
f 18 168 302
f 168 20 303
f 302 303 77
f 168 303 302
f 18 160 161
f 160 14 152
f 161 152 15
f 160 152 161
f 15 153 161
f 153 16 162
f 161 162 18
f 153 162 161
f 16 155 162
f 155 17 163
f 162 163 18
f 155 163 162
f 18 163 159
f 163 17 154
f 159 154 13
f 163 154 159
f 18 159 158
f 159 13 149
f 158 149 10
f 159 149 158
f 18 158 157
f 158 10 144
f 157 144 8
f 158 144 157
f 8 318 142
f 318 81 317
f 142 317 2
f 318 317 142
f 2 317 322
f 317 81 324
f 322 324 84
f 317 324 322
f 2 156 142
f 156 18 157
f 142 157 8
f 156 157 142
f 2 322 309
f 322 84 323
f 309 323 79
f 322 323 309
f 1 166 130
f 166 20 167
f 130 167 2
f 166 167 130
f 20 168 167
f 168 18 156
f 167 156 2
f 168 156 167
f 3 131 132
f 131 1 130
f 132 130 2
f 131 130 132
f 2 340 132
f 340 87 341
f 132 341 3
f 340 341 132
f 2 309 340
f 309 79 345
f 340 345 87
f 309 345 340
f 77 304 308
f 304 69 307
f 308 307 78
f 304 307 308
f 78 307 305
f 307 69 275
f 305 275 14
f 307 275 305
f 78 306 308
f 306 18 302
f 308 302 77
f 306 302 308
f 14 160 305
f 160 18 306
f 305 306 78
f 160 306 305
f 83 326 321
f 326 84 325
f 321 325 82
f 326 325 321
f 84 324 325
f 324 81 320
f 325 320 82
f 324 320 325
f 82 357 321
f 357 90 358
f 321 358 83
f 357 358 321
f 82 320 357
f 320 81 356
f 357 356 90
f 320 356 357
f 86 360 339
f 360 90 359
f 339 359 85
f 360 359 339
f 85 327 339
f 327 81 338
f 339 338 86
f 327 338 339
f 90 356 359
f 356 81 327
f 359 327 85
f 356 327 359
f 97 466 461
f 466 120 468
f 461 468 119
f 466 468 461
f 98 379 462
f 379 97 461
f 462 461 119
f 379 461 462

